<?xml version="1.0" encoding="UTF-8" standalone="no"?>
<!DOCTYPE svg PUBLIC "-//W3C//DTD SVG 1.1//EN"
 "http://www.w3.org/Graphics/SVG/1.1/DTD/svg11.dtd">
<!-- Generated by graphviz version 14.0.5 (0)
 -->
<!-- Title: yard Pages: 1 -->
<svg width="970pt" height="188pt"
 viewBox="0.00 0.00 970.00 188.00" xmlns="http://www.w3.org/2000/svg" xmlns:xlink="http://www.w3.org/1999/xlink">
<g id="graph0" class="graph" transform="scale(1 1) rotate(0) translate(4 184.25)">
<title>yard</title>
<polygon fill="white" stroke="none" points="-4,4 -4,-184.25 965.5,-184.25 965.5,4 -4,4"/>
<g id="clust1" class="cluster">
<title>cluster_Argvise</title>
<polygon fill="none" stroke="black" points="351.5,-35.12 351.5,-170.38 953.5,-170.38 953.5,-35.12 351.5,-35.12"/>
<text xml:space="preserve" text-anchor="middle" x="652.5" y="-153.07" font-family="Times,serif" font-size="14.00">Argvise</text>
</g>
<!-- Root -->
<g id="node1" class="node">
<title>Root</title>
<polygon fill="none" stroke="black" points="0,-52.25 0,-128 79,-128 79,-52.25 0,-52.25"/>
<text xml:space="preserve" text-anchor="middle" x="39.5" y="-110.7" font-family="Times,serif" font-size="14.00">root root</text>
<polyline fill="none" stroke="black" points="0,-102.75 79,-102.75"/>
<text xml:space="preserve" text-anchor="middle" x="39.5" y="-85.45" font-family="Times,serif" font-size="14.00"> </text>
<polyline fill="none" stroke="black" points="0,-77.5 79,-77.5"/>
<text xml:space="preserve" text-anchor="middle" x="39.5" y="-60.2" font-family="Times,serif" font-size="14.00"> </text>
</g>
<!-- Argvise -->
<g id="node2" class="node">
<title>Argvise</title>
<polygon fill="none" stroke="black" points="97.5,-0.5 97.5,-179.75 341.5,-179.75 341.5,-0.5 97.5,-0.5"/>
<text xml:space="preserve" text-anchor="middle" x="219.5" y="-162.45" font-family="Times,serif" font-size="14.00">class Argvise</text>
<polyline fill="none" stroke="black" points="97.5,-154.5 341.5,-154.5"/>
<text xml:space="preserve" text-anchor="start" x="105.5" y="-137.2" font-family="Times,serif" font-size="14.00">+ #bsd_style [RW]</text>
<text xml:space="preserve" text-anchor="start" x="105.5" y="-119.95" font-family="Times,serif" font-size="14.00">+ #kebab_case_flags [RW]</text>
<polyline fill="none" stroke="black" points="97.5,-112 341.5,-112"/>
<text xml:space="preserve" text-anchor="start" x="105.5" y="-94.7" font-family="Times,serif" font-size="14.00">+ build : Array&lt;String&gt;</text>
<text xml:space="preserve" text-anchor="start" x="105.5" y="-77.45" font-family="Times,serif" font-size="14.00">+ new_proc : ::Proc</text>
<text xml:space="preserve" text-anchor="start" x="105.5" y="-60.2" font-family="Times,serif" font-size="14.00">+ #build : Array&lt;String&gt;</text>
<text xml:space="preserve" text-anchor="start" x="105.5" y="-42.95" font-family="Times,serif" font-size="14.00">+ #initialize : Argvise</text>
<text xml:space="preserve" text-anchor="start" x="105.5" y="-25.7" font-family="Times,serif" font-size="14.00">+ #with_bsd_style : self</text>
<text xml:space="preserve" text-anchor="start" x="105.5" y="-8.45" font-family="Times,serif" font-size="14.00">+ #with_kebab_case_flags : self</text>
</g>
<!-- Argvise_HashExt -->
<g id="node3" class="node">
<title>Argvise_HashExt</title>
<polygon fill="none" stroke="black" points="359.38,-43.62 359.38,-136.62 611.62,-136.62 611.62,-43.62 359.38,-43.62"/>
<text xml:space="preserve" text-anchor="middle" x="485.5" y="-119.33" font-family="Times,serif" font-size="14.00">module HashExt</text>
<polyline fill="none" stroke="black" points="359.38,-111.38 611.62,-111.38"/>
<text xml:space="preserve" text-anchor="middle" x="485.5" y="-94.08" font-family="Times,serif" font-size="14.00"> </text>
<polyline fill="none" stroke="black" points="359.38,-86.12 611.62,-86.12"/>
<text xml:space="preserve" text-anchor="start" x="367.38" y="-68.83" font-family="Times,serif" font-size="14.00">+ #to_argv : Array&lt;String&gt;</text>
<text xml:space="preserve" text-anchor="start" x="367.38" y="-51.58" font-family="Times,serif" font-size="14.00">+ #to_argv_bsd : Array&lt;String&gt;</text>
</g>
<!-- Argvise_HashMixin -->
<g id="node4" class="node">
<title>Argvise_HashMixin</title>
<polygon fill="none" stroke="black" points="629.38,-52.25 629.38,-128 779.62,-128 779.62,-52.25 629.38,-52.25"/>
<text xml:space="preserve" text-anchor="middle" x="704.5" y="-110.7" font-family="Times,serif" font-size="14.00">module HashMixin</text>
<polyline fill="none" stroke="black" points="629.38,-102.75 779.62,-102.75"/>
<text xml:space="preserve" text-anchor="middle" x="704.5" y="-85.45" font-family="Times,serif" font-size="14.00"> </text>
<polyline fill="none" stroke="black" points="629.38,-77.5 779.62,-77.5"/>
<text xml:space="preserve" text-anchor="start" x="637.38" y="-60.2" font-family="Times,serif" font-size="14.00">+ included</text>
</g>
<!-- Argvise_HashRefin -->
<g id="node5" class="node">
<title>Argvise_HashRefin</title>
<polygon fill="none" stroke="black" points="797.88,-52.25 797.88,-128 945.12,-128 945.12,-52.25 797.88,-52.25"/>
<text xml:space="preserve" text-anchor="middle" x="871.5" y="-110.7" font-family="Times,serif" font-size="14.00">module HashRefin</text>
<polyline fill="none" stroke="black" points="797.88,-102.75 945.12,-102.75"/>
<text xml:space="preserve" text-anchor="middle" x="871.5" y="-85.45" font-family="Times,serif" font-size="14.00"> </text>
<polyline fill="none" stroke="black" points="797.88,-77.5 945.12,-77.5"/>
<text xml:space="preserve" text-anchor="middle" x="871.5" y="-60.2" font-family="Times,serif" font-size="14.00"> </text>
</g>
</g>
</svg>
